<svg width="32" height="33" viewBox="0 0 32 33" fill="none" xmlns="http://www.w3.org/2000/svg">
<path d="M10.8424 3.44336L5.89303 12.3754H3.9997C3.79476 12.3756 3.59263 12.4245 3.40897 12.5183C3.22531 12.612 3.06506 12.7482 2.94063 12.9161C2.81621 13.084 2.73096 13.2793 2.69149 13.4867C2.65202 13.694 2.65939 13.908 2.71303 14.112L6.44503 28.2236C6.59973 28.8053 6.93524 29.3186 7.40009 29.6847C7.86494 30.0509 8.43345 30.2496 9.01836 30.2504H22.9824C24.1797 30.2504 25.2384 29.4185 25.5557 28.2222L29.2877 14.1106C29.342 13.9066 29.3498 13.6923 29.3104 13.4847C29.2711 13.277 29.1858 13.0815 29.0611 12.9135C28.9364 12.7455 28.7757 12.6095 28.5916 12.5161C28.4074 12.4228 28.2049 12.3746 27.9997 12.3754H26.1064L21.157 3.44336L18.8424 4.80736L23.0357 12.3754H8.9637L13.157 4.80736L10.8424 3.44336ZM18.6664 17.8754H21.333V24.7504H18.6664V17.8754ZM10.6664 17.8754H13.333V24.7504H10.6664V17.8754Z" fill="white"/>
</svg>
