<svg width="23" height="23" viewBox="0 0 23 23" fill="none" xmlns="http://www.w3.org/2000/svg">
<path d="M14.9712 14.79L16.5212 13.2395C16.7299 13.0332 16.9941 12.892 17.2815 12.833C17.5689 12.7741 17.8673 12.7998 18.1403 12.9072L20.0293 13.6617C20.3053 13.7738 20.5419 13.965 20.7093 14.2114C20.8768 14.4578 20.9676 14.7482 20.9704 15.0462V18.5072C20.9687 18.7099 20.9262 18.9102 20.8452 19.0959C20.7642 19.2817 20.6464 19.4491 20.499 19.5882C20.3516 19.7272 20.1776 19.835 19.9875 19.905C19.7974 19.975 19.5951 20.0058 19.3927 19.9955C6.15592 19.1718 3.48503 7.95783 2.97992 3.66608C2.95647 3.45532 2.97789 3.24199 3.04278 3.04011C3.10767 2.83823 3.21454 2.65239 3.35638 2.4948C3.49822 2.33721 3.6718 2.21145 3.86571 2.1258C4.05962 2.04014 4.26946 1.99653 4.48143 1.99783H7.8235C8.12173 1.99871 8.41288 2.08884 8.65949 2.2566C8.90611 2.42437 9.09692 2.66211 9.20738 2.93925L9.96159 4.82901C10.0725 5.10109 10.1008 5.39984 10.0429 5.68792C9.98509 5.976 9.84368 6.24064 9.63638 6.4488L8.08643 7.99937C8.08643 7.99937 8.97903 14.0424 14.9712 14.79Z" fill="white"/>
</svg>
