<svg width="38" height="37" viewBox="0 0 38 37" fill="none" xmlns="http://www.w3.org/2000/svg">
<g clip-path="url(#clip0_915_168)">
<path d="M18.5098 0C28.7275 0 37.0098 8.28222 37.0098 18.5C37.0098 28.7178 28.7275 37 18.5098 37C8.29198 37 0.00976562 28.7178 0.00976562 18.5C0.00976562 8.28222 8.29198 0 18.5098 0ZM15.9591 8.11687C14.3981 7.98969 13.1922 8.38281 12.5678 9.27891L8.27233 15.4151C7.64795 16.3101 7.66877 17.6108 8.29314 19.0804C9.15686 21.105 11.1537 23.5019 13.8998 25.5057C16.6355 27.5187 19.496 28.6912 21.649 28.882C23.1984 29.0103 24.4159 28.616 25.0403 27.7211L29.3253 21.5849C29.9497 20.6899 29.9289 19.3892 29.3045 17.9196C28.4512 15.895 26.444 13.4981 23.7083 11.4839C20.9622 9.48125 18.112 8.29841 15.9591 8.11687ZM24.964 22.5099C25.7791 22.6544 26.5029 22.681 27.0972 22.5839C27.1365 22.58 27.1757 22.5912 27.207 22.6152C27.2382 22.6392 27.2591 22.6742 27.2655 22.7131C27.2718 22.7521 27.2631 22.7919 27.2411 22.8246C27.219 22.8573 27.1854 22.8804 27.147 22.8891C26.5145 22.9932 25.7571 22.9643 24.9108 22.8151C24.8707 22.8076 24.8352 22.7846 24.812 22.7511C24.7888 22.7177 24.7797 22.6764 24.7867 22.6362C24.7937 22.5961 24.8162 22.5603 24.8494 22.5367C24.8826 22.513 24.9237 22.5034 24.964 22.5099ZM23.7765 22.2335C23.9765 22.2902 24.1731 22.3411 24.3662 22.3862C24.4049 22.3966 24.438 22.4216 24.4586 22.456C24.4792 22.4904 24.4857 22.5314 24.4768 22.5704C24.4678 22.6095 24.444 22.6436 24.4105 22.6655C24.3769 22.6874 24.3362 22.6954 24.2968 22.6879C24.0979 22.6417 23.8967 22.5897 23.6932 22.5318C23.6549 22.5198 23.6227 22.4933 23.6035 22.4579C23.5843 22.4226 23.5797 22.3811 23.5905 22.3424C23.6013 22.3037 23.6267 22.2706 23.6615 22.2503C23.6962 22.23 23.7374 22.224 23.7765 22.2335ZM13.1621 9.71597C13.6616 9.00141 14.6502 8.76784 15.8978 8.87422C17.9467 9.04419 20.6615 10.1842 23.2724 12.1025C25.8936 14.0195 27.8187 16.2892 28.6397 18.2179C29.1288 19.3892 29.2328 20.4333 28.7333 21.1374L28.7021 21.1906C28.1934 21.8612 27.2256 22.0855 25.9976 21.9884C23.9488 21.8184 21.2339 20.6784 18.6231 18.7613C16.0123 16.8431 14.0883 14.5734 13.2662 12.6343C12.7771 11.4839 12.673 10.4722 13.1413 9.75759L13.1621 9.71597ZM12.3019 12.5465C12.3828 12.5222 12.4695 12.5696 12.4926 12.6505C13.0095 14.4219 14.3588 16.1366 16.4898 18.0826L16.7291 18.3C16.8517 18.4098 16.9754 18.5197 17.1015 18.6295C17.117 18.6429 17.1296 18.6592 17.1388 18.6775C17.148 18.6958 17.1534 18.7158 17.1548 18.7362C17.1562 18.7566 17.1535 18.7771 17.1469 18.7965C17.1404 18.8159 17.13 18.8338 17.1165 18.8492C17.1031 18.8644 17.0869 18.8768 17.0688 18.8858C17.0506 18.8947 17.0309 18.9 17.0107 18.9012C16.9905 18.9025 16.9702 18.8998 16.9511 18.8933C16.9319 18.8867 16.9143 18.8765 16.8991 18.8631C16.7337 18.7179 16.5695 18.5715 16.4065 18.4237L16.1695 18.2086C14.0651 16.2684 12.7239 14.5468 12.1978 12.7384C12.1863 12.6992 12.1908 12.6569 12.2103 12.621C12.2298 12.585 12.2627 12.5582 12.3019 12.5465ZM18.3733 12.2192C17.7906 12.1765 17.3235 12.2724 17.0945 12.6031C16.8656 12.9327 16.928 13.4125 17.157 13.9559C17.5616 14.9249 18.5294 16.0545 19.8395 17.0142C21.1506 17.9727 22.5035 18.5474 23.5325 18.633C24.1049 18.6862 24.5731 18.5902 24.8021 18.2607C25.0414 17.93 24.979 17.4513 24.7396 16.9078C24.3338 15.9366 23.366 14.7977 22.056 13.8392C20.7552 12.8795 19.3931 12.3152 18.3733 12.2192ZM12.133 11.3197C12.1532 11.3189 12.1734 11.3221 12.1924 11.3292C12.2113 11.3362 12.2287 11.3469 12.2435 11.3606C12.2583 11.3744 12.2703 11.3909 12.2787 11.4093C12.2871 11.4276 12.2919 11.4475 12.2926 11.4677C12.3007 11.6643 12.3227 11.8631 12.3562 12.0632C12.3604 12.0834 12.3605 12.1042 12.3565 12.1245C12.3524 12.1447 12.3444 12.164 12.3328 12.181C12.3211 12.1981 12.3062 12.2127 12.2888 12.2238C12.2715 12.235 12.252 12.2426 12.2317 12.246C12.2113 12.2495 12.1905 12.2489 12.1704 12.2442C12.1503 12.2394 12.1313 12.2307 12.1147 12.2185C12.098 12.2063 12.084 12.1908 12.0735 12.1731C12.0629 12.1553 12.056 12.1356 12.0533 12.1152C12.0169 11.9053 11.9941 11.6932 11.985 11.4804C11.9841 11.4601 11.9872 11.4397 11.9941 11.4206C12.0011 11.4014 12.0117 11.3838 12.0255 11.3688C12.0392 11.3537 12.0558 11.3416 12.0743 11.3329C12.0927 11.3243 12.1127 11.3194 12.133 11.3185V11.3197Z" fill="white"/>
</g>
<defs>
<clipPath id="clip0_915_168">
<rect width="37" height="37" fill="white" transform="translate(0.00976562)"/>
</clipPath>
</defs>
</svg>
