<svg width="37" height="38" viewBox="0 0 37 38" fill="none" xmlns="http://www.w3.org/2000/svg">
<path d="M23.0321 17.3465C22.6956 16.3452 22.1823 15.9868 21.5885 15.9868C20.8647 15.9868 20.0207 16.5181 19.227 17.0685C18.7546 17.3968 16.9261 19.4162 15.9288 19.4162C15.8145 19.4193 15.7022 19.3861 15.608 19.3214C14.6344 18.6323 15.8542 15.6295 15.8542 14.1895C15.8542 12.7956 15.601 12.2632 15.2131 12.2632C14.1407 12.2632 12.0398 16.3464 11.4542 17.5246C11.2889 17.857 11.0582 17.9882 10.7905 17.9882C9.85457 17.9882 8.46248 16.3782 7.82308 16.1313C7.72769 16.0926 7.62597 16.0719 7.52304 16.0701C6.45469 16.0701 6.47781 18.7276 6.494 19.4329C7.07789 19.2734 7.62537 19.1751 8.10405 19.1751C9.31057 19.1751 10.0777 19.8001 9.8777 21.6344C9.83261 22.0466 9.57188 23.3601 9.99853 23.6497C10.067 23.6942 10.1475 23.7167 10.2292 23.7139C10.7212 23.7139 11.5005 23.1074 11.7901 22.9224C12.1797 22.6727 12.5885 22.49 12.9342 22.49C13.3504 22.49 13.6753 22.7542 13.7684 23.4855C13.8239 23.9185 13.6117 25.5662 14.0361 25.8292C14.0983 25.8667 14.1698 25.8861 14.2425 25.8853C15.0258 25.8853 16.363 23.9278 16.9683 23.7035C17.2524 23.5982 17.5532 23.5448 17.8562 23.5457C18.6616 23.5457 19.4276 23.9012 20.2109 24.2018C20.3427 24.2527 20.4502 24.2747 20.5375 24.2747C21.011 24.2747 20.8734 23.6173 20.4682 23.197C19.8779 22.5819 18.9414 22.8519 18.2846 22.4114C17.4504 21.8518 18.6118 20.7273 19.0628 20.3938C19.601 19.9949 20.7942 19.3537 21.7464 19.3537C22.1875 19.3537 22.5765 19.4913 22.824 19.8532C23.2917 20.5371 22.5135 21.4008 22.7101 22.1686C22.7928 22.4871 22.9928 22.597 23.2298 22.597C23.7345 22.597 24.4034 22.0986 24.4496 22.0512C24.7573 21.7316 25.0883 21.4354 25.4399 21.165C23.6825 20.7759 23.5333 18.8415 23.0321 17.3465Z" fill="white"/>
<path d="M8.62188 15.9058C8.62188 15.9058 10.1417 17.2464 10.791 17.2464C10.9153 17.2464 11.0083 17.1973 11.0517 17.0782C11.9859 14.52 13.9613 11.5965 15.2511 11.5965C15.8136 11.5965 16.2455 12.1532 16.4027 13.5407C16.6062 15.3369 15.3638 18.0592 15.961 18.6795C15.974 18.6927 15.9897 18.703 16.0069 18.7098C16.0241 18.7165 16.0426 18.7196 16.061 18.7189C16.7322 18.7189 19.384 15.323 21.6537 15.323C21.8284 15.3226 22.0024 15.3441 22.1717 15.3872C24.2165 15.9115 23.3302 19.3981 24.99 20.3942C25.2648 20.5616 25.5799 20.6513 25.9017 20.6538C26.5133 20.6538 27.0718 20.3052 27.2053 19.5843C27.5424 17.7644 21.7624 14.2367 24.8894 14.2367C25.338 14.2367 25.9699 14.309 26.829 14.4697C27.3406 10.964 27.162 9.99223 26.7041 9.99223C26.1821 9.99223 25.2964 11.2542 24.6518 11.4716C24.6332 11.4779 24.6137 11.4812 24.594 11.4814C24.2257 11.4814 24.2385 10.1553 23.6083 10.1553C23.2013 10.1553 22.5267 10.7085 21.3092 12.5273C20.6813 13.4655 20.2113 13.8367 19.8402 13.8367C18.4284 13.8367 18.4683 8.43652 16.7744 8.43652C16.4322 8.43652 16.0194 8.65678 15.5095 9.18576C14.7268 9.99859 13.996 10.2865 13.3121 10.2865C11.6466 10.2865 10.2666 8.57585 9.13524 8.57585C8.68894 8.57585 8.28021 8.84236 7.90907 9.58697C7.14075 11.1311 9.74226 11.0513 8.62188 15.9058ZM10.6123 16.6006C10.3082 16.4642 9.76828 16.0988 9.26185 15.6826C9.35551 15.2242 9.41332 14.8125 9.44685 14.4333C9.58964 14.194 9.76539 13.9581 9.97987 13.7396C10.8534 12.8487 11.9726 12.5671 12.5213 13.0817C11.7391 14.1598 11.0505 15.4797 10.6123 16.6006ZM23.4528 14.3032C23.1672 14.979 23.7228 15.6924 24.5732 16.6249C24.5139 16.6897 24.4448 16.7449 24.3685 16.7885C24.2875 16.8334 24.1996 16.8645 24.1084 16.8805C23.8378 15.967 23.384 15.09 22.3128 14.8154C22.1554 14.777 21.9947 14.7532 21.8329 14.7443C21.5427 13.8008 21.6774 12.9146 22.2272 12.6082C22.8331 12.2688 23.7164 12.7533 24.3194 13.6933C23.9835 13.7575 23.6181 13.9124 23.4528 14.3032Z" fill="white"/>
<path d="M27.753 19.5972C27.6264 20.4245 28.8289 20.5725 28.2543 21.9276C27.9594 22.6208 25.4625 24.2187 25.6464 24.5684C25.9187 25.0801 26.2459 25.279 26.5772 25.279C27.2327 25.279 27.9005 24.5008 28.1693 23.8267C28.5213 22.9451 28.6121 20.6309 29.47 20.202C29.6151 20.1285 29.7585 20.0962 29.9001 20.0962C30.7471 20.0962 31.5385 21.2414 32.3016 21.3963C32.4878 20.5673 32.3548 19.7071 32.5444 18.8735C29.3232 18.833 34.3343 14.4306 31.4709 12.6344C31.3165 12.5379 31.187 12.4945 31.0737 12.4951C30.1724 12.4951 30.3823 15.255 28.1051 15.255C27.9236 15.255 27.7253 15.2371 27.5096 15.199C26.6766 15.0521 26.1014 14.9839 25.725 14.9839C23.5317 14.9851 28.1086 17.2923 27.753 19.5972Z" fill="white"/>
<path d="M33.459 15.2722C33.5412 14.7757 33.5454 14.2693 33.4717 13.7715C33.2648 12.3846 32.1808 11.2561 31.0558 11.2555C30.6714 11.2555 29.751 11.4156 29.3157 12.7817C29.0229 12.6594 28.7274 12.5437 28.4294 12.4349C28.6867 10.7034 28.5901 9.51654 28.1282 8.9101C28.0168 8.75836 27.8711 8.63509 27.7031 8.5503C27.535 8.46551 27.3493 8.42161 27.1611 8.42217C26.5563 8.42217 25.8771 8.82685 25.033 9.69228L25.0024 9.61019C24.8232 9.12573 24.5237 8.31522 23.7201 8.31522C23.1709 8.31522 22.4436 8.65399 20.9151 10.882C20.4718 10.8494 20.0279 10.8257 19.5837 10.8109L19.5016 10.5126C19.0247 8.76152 18.4836 6.77743 16.9591 6.77686H16.9585C16.337 6.77686 15.6832 7.1428 14.9588 7.89493C14.4194 8.4557 13.8858 8.72799 13.3268 8.72799C12.6452 8.72799 11.9474 8.33718 11.2722 7.95968C10.5894 7.57812 9.88412 7.18327 9.15454 7.18327C8.28968 7.18327 7.5867 7.7134 7.00512 8.8043C6.34086 10.0507 6.71028 10.8739 7.06755 11.6706C7.22364 12.018 7.38725 12.3863 7.50345 12.8384C3.63182 14.501 1.15576 17.0187 1.15576 19.8416C1.15576 27.6653 8.92098 36.8399 18.4992 36.8399C28.0779 36.8399 35.8426 27.6653 35.8426 19.8416C35.8426 18.1732 34.965 16.6146 33.459 15.2722ZM18.4992 35.6612C11.2086 35.6612 5.07826 29.9401 3.03926 23.9491C5.90612 26.8912 11.7503 28.9071 18.4992 28.9071C25.2481 28.9071 31.0911 26.8912 33.9579 23.9497C31.9189 29.9396 25.7892 35.6612 18.4992 35.6612ZM24.9365 25.5523C24.7971 25.9905 24.3641 26.6565 23.8271 27.1253C22.9981 27.8485 21.9875 28.004 21.5059 27.4988C21.1013 27.0721 21.1677 26.2795 21.6325 25.5378C22.5841 24.0185 23.9485 23.6855 24.5405 23.9861C24.5289 24.0278 24.5127 24.0677 24.5046 24.1122C24.4225 24.5741 24.5711 25.0585 24.9365 25.5523ZM33.8209 18.1247C33.2549 18.1247 32.9827 19.6925 32.9422 20.6782C32.9063 21.5471 32.6554 21.8367 32.2964 21.8367C31.7796 21.8367 31.0385 21.2378 30.3915 20.899C30.1846 20.7903 30.0256 20.7423 29.9007 20.7423C29.5302 20.7423 29.4625 21.1754 29.3353 21.7882C29.1209 22.8224 28.8653 23.8954 28.3046 24.7874C27.8929 25.4424 27.2564 25.898 26.6188 25.898C26.1996 25.898 25.7799 25.7014 25.4227 25.236C24.0178 23.4103 27.1038 23.0369 27.7189 21.7853C28.075 21.0615 27.9612 20.8094 27.6351 20.8094C26.9934 20.8094 25.5302 21.7887 25.2284 22.0657C24.6954 22.553 24.0832 23.271 23.3339 23.271C23.2073 23.271 23.0761 23.2502 22.9408 23.2045C22.1459 22.9363 22.0343 21.9362 22.2026 21.1933C22.3425 20.5724 22.6645 20.0145 21.8343 19.9827C21.805 19.9816 21.7757 19.981 21.7464 19.981C21.2117 19.981 20.6654 20.1567 20.1803 20.3764C19.5918 20.6435 18.7778 21.121 18.5645 21.8223C18.498 22.0379 19.9254 22.2628 20.1474 22.3483C21.2597 22.7831 21.8037 24.8764 20.6399 24.8764C20.4896 24.8764 20.311 24.8412 20.1011 24.7649C19.3715 24.4926 18.6379 24.1076 17.8742 24.1076C17.6233 24.1076 17.3695 24.1492 17.1123 24.2503C16.5793 24.4596 16.2879 25.0568 15.8682 25.4309C15.2473 25.9882 14.6981 26.2876 14.2668 26.2876C13.6725 26.2876 13.3025 25.7188 13.2788 24.4694C13.258 23.4543 13.0632 23.1253 12.7481 23.1253C12.1862 23.1253 11.2427 24.1746 10.2293 24.2521C10.1998 24.2538 10.1714 24.255 10.1443 24.255C8.79207 24.255 9.31815 21.6841 9.42337 20.8915C9.53841 20.0272 9.01695 19.7202 8.21395 19.7202C7.31152 19.7202 6.05643 20.1076 4.95108 20.5279C5.00426 20.5753 5.05976 20.6169 5.11064 20.6689C6.12234 21.6783 6.45475 23.0097 5.85525 23.6404C5.25459 24.27 3.94863 23.9619 2.93809 22.9513C1.92754 21.9408 1.59397 20.6094 2.19463 19.9792C2.70742 19.4375 3.50464 19.6197 4.18277 19.981C5.06901 19.6832 5.96798 19.4237 5.94717 19.0051C5.78934 15.8394 6.68715 15.2485 7.38031 15.2491C7.64453 15.2557 7.90298 15.3278 8.13244 15.459C8.75796 11.4301 6.41139 11.1566 7.51386 9.08758C8.03589 8.10883 8.58105 7.77468 9.1557 7.77468C10.3911 7.77468 11.7618 9.31882 13.3279 9.31882C13.9749 9.31882 14.6553 9.05462 15.3727 8.30944C16.0162 7.64114 16.5342 7.36769 16.9602 7.36769C18.8663 7.36827 18.9171 12.8424 20.0069 12.8424C20.2162 12.8424 20.4642 12.6407 20.77 12.1597C22.3685 9.6495 23.2189 8.90547 23.7207 8.90547C24.4526 8.90547 24.4428 10.4883 24.9266 10.4883C25.0261 10.4883 25.1475 10.4207 25.3001 10.2583C26.1031 9.40323 26.7211 9.01184 27.1616 9.01184C28.2005 9.01184 28.2519 11.1861 27.4056 14.5733C27.4056 14.5733 27.5946 14.6213 27.8716 14.6213C28.4618 14.6213 29.4486 14.4045 29.8348 13.0494C30.0782 12.1961 30.5517 11.8458 31.057 11.8458C31.8548 11.8458 32.7306 12.7187 32.9011 13.8605C33.2116 15.9457 31.8363 17.4228 31.9438 18.0518C31.9623 18.1634 32.0172 18.2073 32.0993 18.2073C32.4074 18.2073 33.0994 17.5801 33.7036 17.5801C34.1539 17.5801 34.5563 17.9298 34.7112 19.152C34.3574 18.4114 34.0626 18.1247 33.8209 18.1247Z" fill="white"/>
</svg>
