<svg width="37" height="37" viewBox="0 0 37 37" fill="none" xmlns="http://www.w3.org/2000/svg">
<path d="M10.3206 18.4179C9.3332 17.9375 8.3689 17.8595 8.1683 18.2428C7.96885 18.6289 8.60766 19.3296 9.59624 19.81C10.5837 20.2922 11.5468 20.3714 11.7486 19.9852C11.9474 19.6031 11.3098 18.8989 10.3206 18.4179Z" fill="white"/>
<path d="M15.1251 16.9995C13.5926 16.9995 12.1889 17.6823 11.9611 18.6425C11.6952 19.7635 13.0937 20.8226 15.1251 20.8226C17.1584 20.8226 18.5557 19.7641 18.2897 18.6425C18.062 17.6823 16.6577 16.9995 15.1251 16.9995Z" fill="white"/>
<path d="M28.5133 16.9995C26.9818 16.9995 25.5776 17.6823 25.3498 18.6437C25.0839 19.7641 26.4812 20.8226 28.5133 20.8226C30.5465 20.8226 31.9438 19.7646 31.6784 18.6437C31.4495 17.6823 30.0458 16.9995 28.5133 16.9995Z" fill="white"/>
<path d="M35.8271 11.8983C35.8052 11.445 35.6853 11.0018 35.4756 10.5993C34.461 8.65453 31.4514 7.44916 28.514 7.44916C26.1986 7.44916 23.8445 8.20013 22.453 9.46909V7.44916H22.4386C22.4166 6.99603 22.2967 6.55304 22.0871 6.15072C21.0731 4.20537 18.0634 3 15.1254 3C12.188 3 9.17663 4.20537 8.16493 6.15014C7.95475 6.55225 7.8348 6.99536 7.81344 7.44858H7.79783V12.3793C7.25036 12.536 6.58032 12.7672 5.67037 13.0944C4.48871 13.5211 1.22872 17.5841 1.22872 17.5841C3.41746 17.4575 5.63106 17.8327 7.73655 18.4674C8.28634 18.6299 8.82918 18.8131 9.36567 19.0091C9.8802 17.1649 11.3157 15.1797 10.2565 13.5217C12.0348 15.156 10.3346 17.6136 10.7699 19.5647C11.7992 20.0028 12.8102 20.4826 13.8004 21.003C14.1079 21.1643 14.4103 21.3326 14.7138 21.4979C15.8301 19.6185 16.6933 17.465 16.1498 15.2653C17.2529 17.4517 16.7933 19.9977 16.0429 22.246C17.18 22.9033 18.2975 23.5814 19.4052 24.2578C19.5428 24.3405 19.6815 24.4214 19.8197 24.5041C20.3128 22.7732 21.2945 21.051 21.6702 19.3057C21.7627 21.2187 21.0626 23.4433 21.2448 25.3308C21.5535 25.506 21.861 25.6829 22.1755 25.8471C23.1126 26.3454 24.0769 26.7824 25.1383 27.0472C24.0399 27.1657 22.9219 26.9287 21.8604 26.6321C20.8002 26.3113 19.7735 25.9054 18.7808 25.4516C16.7863 24.5567 14.8942 23.5236 12.9991 22.5385C11.1058 21.5476 9.21536 20.592 7.27406 19.7381C5.30969 18.8843 3.28977 18.1644 1.22815 17.5835C1.20387 18.0934 1.34319 18.6623 1.59583 19.2167C1.20329 19.8913 0.85295 21.0741 1.56923 22.0893C1.62647 22.1697 1.68196 22.2448 1.73573 22.3159L1.82071 22.431C1.63225 23.1993 1.99993 23.852 2.22539 24.2515C2.28725 24.3607 2.3809 24.5272 2.39767 24.5897C2.42253 24.7382 2.41444 24.8787 2.40345 25.0562C2.35489 25.8806 2.49132 26.7258 3.80827 27.3207C4.1297 27.4652 5.25182 27.8768 6.17969 27.8768C6.31728 27.8768 6.4462 27.8676 6.56703 27.8508C7.04686 28.4382 7.65619 28.9296 8.30252 29.2308C9.08009 29.5921 9.90043 29.7274 10.6242 29.847L10.6791 29.8563C11.1335 30.4338 11.692 30.565 12.0256 30.6431C12.2158 30.6876 12.2713 30.7038 12.3354 30.7512C12.7742 31.0738 13.938 31.8224 15.263 31.8224C15.5651 31.8226 15.8656 31.7798 16.1556 31.6953C16.2244 31.8253 16.3036 31.93 16.3788 32.0121C16.865 32.5433 17.5275 32.5537 17.9229 32.5601C18.0143 32.5613 18.1524 32.5636 18.1993 32.574C18.6219 32.7075 19.3121 32.7451 20.3967 32.7902L20.7522 32.8052C20.821 33.4487 21.1968 33.8071 21.5523 34.0031C21.8073 34.1447 22.0848 34.217 22.375 34.217C22.9652 34.217 23.4607 33.9233 23.881 33.5244C24.145 33.7309 24.4713 33.842 24.8065 33.8395C24.9678 33.8395 25.132 33.8152 25.2962 33.7661C26.3801 33.4388 26.7293 32.5087 26.9392 31.9531C26.9814 31.8404 27.0421 31.6796 27.0866 31.5947C28.4272 31.0374 29.2539 30.0962 29.5465 28.7949C29.6077 28.522 29.6471 28.2445 29.6632 27.9624C29.8926 27.7066 30.0601 27.4016 30.1529 27.0709C30.283 26.6292 30.3194 26.0881 30.2015 25.5973C30.3159 25.3162 30.3695 25.0139 30.3585 24.7106C30.3475 24.4072 30.2723 24.1097 30.1379 23.8375C29.9448 23.4381 29.6089 23.0062 28.9331 22.5634C28.9551 22.4252 28.9632 22.2865 28.9753 22.1483C33.3175 22.0038 35.8652 19.8543 35.8311 17.606H35.8421V11.8972H35.8271V11.8983ZM15.1254 11.3572C10.2687 11.3572 7.63769 8.59903 8.79739 6.15014C9.64606 4.35799 12.3956 3.22315 15.1254 3.22315C17.8559 3.22315 20.6042 4.35799 21.4523 6.15014C22.612 8.59903 19.981 11.3572 15.1254 11.3572ZM28.9186 25.5435C29.2609 25.8933 29.1794 27.2102 28.5082 27.3617C28.5358 27.7576 28.506 28.1554 28.4197 28.5428C28.1896 29.5684 27.5364 30.1754 26.5744 30.5569C25.7222 30.8928 25.9818 32.3526 24.9643 32.6601C24.9065 32.6775 24.8545 32.6856 24.8065 32.6856C24.1862 32.6856 24.3278 31.3339 24.3932 31.0038C24.0388 31.3357 23.1693 33.0631 22.375 33.0631C22.2822 33.0632 22.191 33.0393 22.1102 32.9937C21.6263 32.726 22.0946 32.0994 21.9535 31.8398C22.7606 31.1339 23.1652 30.3008 22.8571 29.9806C22.7588 29.8782 22.5952 29.8482 22.3975 29.8673C22.5386 29.5886 22.5698 29.3446 22.4449 29.192C22.1657 28.8492 21.2355 29.0932 20.3712 29.7349C19.5058 30.3777 19.034 31.1755 19.3133 31.5183C19.3358 31.5455 19.3676 31.564 19.3977 31.5837C19.0242 31.5582 18.7057 31.5236 18.5357 31.4704C18.0339 31.312 17.3344 31.553 17.1569 31.0917C17.2795 31.0564 17.3743 30.9986 17.4257 30.9107C17.6443 30.5356 17.0384 29.8077 16.0712 29.2857C15.1052 28.7625 14.1461 28.6451 13.9276 29.0209C13.7102 29.3949 14.3149 30.1228 15.2821 30.646C15.2942 30.6529 15.3064 30.6575 15.3185 30.6639C15.2994 30.6645 15.2815 30.6685 15.2624 30.6685C14.475 30.6685 13.6102 30.2563 13.017 29.821C12.5829 29.5019 12.1961 29.551 11.8689 29.3776C12.0377 29.3423 12.1655 29.2741 12.2233 29.1631C12.4239 28.7792 11.7874 28.0763 10.7982 27.5958C9.81024 27.1149 8.84537 27.0368 8.64592 27.4207C8.53377 27.6352 8.69102 27.9497 9.01765 28.2688C8.9425 28.2393 8.86272 28.2185 8.78929 28.1844C8.47832 28.036 8.1902 27.8438 7.93369 27.6138C8.17707 27.5947 8.35513 27.5172 8.42855 27.3756C8.62916 26.9917 7.9915 26.2887 7.00177 25.8083C6.01435 25.3262 5.05006 25.2493 4.85061 25.6332C4.72284 25.8783 4.93674 26.2506 5.36281 26.6136C4.99349 26.5293 4.63202 26.4136 4.28232 26.2679C3.17119 25.7661 3.69322 25.3383 3.53308 24.3885C3.43423 23.7988 2.76535 23.227 2.95613 22.6553C3.12956 22.135 2.83183 21.8766 2.51098 21.4227C2.278 21.0926 2.28147 20.7227 2.35431 20.407C2.66245 20.7724 3.01452 21.1007 3.40648 21.3499C3.54869 21.4395 3.91811 21.6124 4.4465 21.8413C4.25804 22.1951 4.15514 22.7686 4.19503 23.4138C4.26035 24.4665 4.67717 25.3054 5.13041 25.2851C5.58019 25.2649 5.89468 24.3966 5.82877 23.3427C5.80992 23.0022 5.74676 22.6656 5.64089 22.3414C6.23866 22.5853 6.9295 22.8605 7.6903 23.1577C7.67816 23.1733 7.66429 23.1877 7.65215 23.2039C7.0087 24.0526 6.7844 24.9475 7.15092 25.2048C7.51802 25.4615 8.33721 24.9822 8.98123 24.1335C9.0772 24.0069 9.16044 23.8803 9.23675 23.7537C10.7531 24.3318 12.432 24.9539 14.1241 25.5574C13.3367 25.6378 12.7621 25.9083 12.7546 26.2512C12.7459 26.6836 13.6327 27.0611 14.7346 27.0964C15.7625 27.1293 16.6037 26.8524 16.7222 26.4645C17.0182 26.5656 17.3118 26.6651 17.6015 26.7622C16.8892 26.8593 16.3857 27.1201 16.3799 27.4421C16.3741 27.7398 16.7967 28.008 17.4165 28.1607C17.1164 28.6127 17.0228 29.0238 17.2182 29.2267C17.5257 29.5487 18.4293 29.2348 19.2375 28.526C19.2612 28.5046 19.2815 28.4832 19.3046 28.4619C19.3157 28.5085 19.3361 28.5523 19.3647 28.5908C19.6463 28.9342 20.5736 28.6902 21.4378 28.0485C21.4633 28.03 21.4847 28.0098 21.5095 27.9907C22.6022 28.304 23.5381 28.5364 24.2215 28.6503L24.1949 28.7018C23.9232 29.2839 23.7249 30.7443 24.1347 30.7628C24.5839 30.7841 25.2436 30.3141 25.6904 29.3556C25.9061 28.8937 26.0217 28.4422 26.0402 28.0757C26.3278 27.7743 26.5973 27.4562 26.8473 27.1229C26.8865 27.1986 26.9486 27.2599 27.0247 27.2981C27.4375 27.4796 28.1347 26.8489 28.5799 25.891C29.0267 24.9319 29.0551 24.0087 28.64 23.8283C28.6354 23.826 28.629 23.8271 28.625 23.8254L28.6388 23.7867C29.2482 24.3075 29.3973 24.8909 28.9186 25.5435ZM28.5134 15.8075C23.6578 15.8075 21.0257 13.0488 22.1865 10.5987C23.0352 8.80715 25.7847 7.67174 28.5134 7.67174C31.2438 7.67174 33.9933 8.80715 34.8414 10.5987C36.0011 13.0488 33.3701 15.8075 28.5134 15.8075Z" fill="white"/>
</svg>
