<svg width="49" height="49" viewBox="0 0 49 49" fill="none" xmlns="http://www.w3.org/2000/svg">
<g clip-path="url(#clip0_0_199)">
<path fill-rule="evenodd" clip-rule="evenodd" d="M36.287 10.1079H34.7765V7.06301C34.7765 5.37104 33.5172 3.99707 31.9671 3.99707H20.837C19.2869 3.99707 18.0304 5.37104 18.0304 7.06301V10.1079H16.4973C6.10125 10.1079 3.80859 45.4743 3.80859 45.4743C3.80859 47.2142 5.25986 48.6362 7.04712 48.6362H45.74C47.5301 48.6362 48.9814 47.2142 48.9814 45.4743C48.9814 45.4743 46.4882 10.1079 36.287 10.1079ZM20.628 34.0475V27.7986H32.0405V34.0475H20.628ZM32.1535 36.9964V42.9963H20.7127V36.9964H32.1535ZM32.128 18.7478V25.0597H20.628V18.7478H32.128ZM42.4648 25.0597H34.6861V18.7478H40.686C41.3947 20.6647 41.982 22.8457 42.4648 25.0597ZM18.0107 25.0597H10.2574C10.7233 22.8727 11.2936 20.6407 11.9938 18.7478H18.0107V25.0597ZM17.9824 27.7986V34.0475H8.74685C8.98967 32.1995 9.30025 29.9676 9.72377 27.7986H17.9824ZM34.8047 27.7056H43.0521C43.4841 29.8986 43.8172 32.1725 44.0657 34.0445H34.8047V27.7056ZM20.6817 7.552C20.6817 7.04201 21.0996 6.62502 21.6134 6.62502H31.1935C31.7073 6.62502 32.1252 7.04201 32.1252 7.552V10.1109H20.6817V7.552ZM8.08898 40.6743C8.08898 40.6743 8.19063 39.3244 8.4645 36.9964H17.9824V42.9963H10.4833C9.15908 42.9963 8.08898 41.9493 8.08898 40.6743ZM42.2869 42.9963H34.8075V36.9964H44.3C44.5824 39.3004 44.6981 40.6953 44.6981 40.6953C44.6953 41.9613 43.6111 42.9963 42.2869 42.9963Z" fill="#EB1C23"/>
</g>
<defs>
<clipPath id="clip0_0_199">
<rect width="47.9991" height="47.9991" fill="white" transform="translate(0.982422 0.99707)"/>
</clipPath>
</defs>
</svg>
