<svg width="54" height="54" viewBox="0 0 54 54" fill="none" xmlns="http://www.w3.org/2000/svg">
<path d="M23.5296 13.1788L15.4106 3.80757C14.4747 2.72766 12.7587 2.73246 11.6715 3.82197L4.99491 10.5102C3.00776 12.4997 2.43897 15.4538 3.58854 17.8225C10.4563 32.0412 21.9242 43.5246 36.1341 50.4119C38.5005 51.5614 41.4524 50.9926 43.4395 49.0032L50.1786 42.2525C51.2706 41.1606 51.273 39.4351 50.1834 38.4992L40.7756 30.4239C39.7916 29.5791 38.2629 29.6895 37.2765 30.6782L34.003 33.9564C33.8354 34.132 33.6148 34.2478 33.375 34.2859C33.1353 34.3241 32.8896 34.2825 32.6758 34.1676C27.325 31.0864 22.8864 26.6423 19.8121 21.2878C19.697 21.0736 19.6553 20.8276 19.6935 20.5874C19.7316 20.3473 19.8475 20.1263 20.0233 19.9583L23.2873 16.6921C24.276 15.6986 24.384 14.1627 23.5296 13.1764V13.1788Z" stroke="#EB1C23" stroke-width="4.9999" stroke-linecap="round" stroke-linejoin="round"/>
</svg>
