<svg width="49" height="49" viewBox="0 0 49 49" fill="none" xmlns="http://www.w3.org/2000/svg">
<path d="M24.962 4.99365C13.9222 4.99365 4.98242 13.9535 4.98242 24.9933C4.98242 36.033 13.9222 44.9929 24.962 44.9929C36.0218 44.9929 44.9816 36.033 44.9816 24.9933C44.9816 13.9535 36.0218 4.99365 24.962 4.99365ZM24.982 40.993C16.1422 40.993 8.98234 33.8331 8.98234 24.9933C8.98234 16.1534 16.1422 8.99357 24.982 8.99357C33.8219 8.99357 40.9817 16.1534 40.9817 24.9933C40.9817 33.8331 33.8219 40.993 24.982 40.993ZM25.982 14.9935H22.9821V26.9932L33.4819 33.2931L34.9818 30.8331L25.982 25.4933V14.9935Z" fill="#EB1C23"/>
</svg>
