<svg width="52" height="52" viewBox="0 0 52 52" fill="none" xmlns="http://www.w3.org/2000/svg">
<path d="M25.9995 50C39.2545 50 49.9991 39.2554 49.9991 26.0005C49.9991 12.7456 39.2545 2.00098 25.9995 2.00098C12.7446 2.00098 2 12.7456 2 26.0005C2 39.2554 12.7446 50 25.9995 50Z" stroke="#EB1C23" stroke-width="3.99992" stroke-linecap="round" stroke-linejoin="round"/>
<path d="M2 26.0005H49.9991" stroke="#EB1C23" stroke-width="3.99992" stroke-linecap="round" stroke-linejoin="round"/>
<path d="M25.9992 50C31.3007 50 35.599 39.2554 35.599 26.0005C35.599 12.7456 31.3007 2.00098 25.9992 2.00098C20.6977 2.00098 16.3994 12.7456 16.3994 26.0005C16.3994 39.2554 20.6977 50 25.9992 50Z" stroke="#EB1C23" stroke-width="3.99992" stroke-linecap="round" stroke-linejoin="round"/>
<path d="M42.9704 42.6296C40.7444 40.3977 38.0992 38.6277 35.1869 37.4214C32.2746 36.215 29.1526 35.5961 26.0003 35.6002C22.8481 35.5961 19.7261 36.215 16.8138 37.4214C13.9015 38.6277 11.2563 40.3977 9.03027 42.6296M9.03027 9.37109C11.2563 11.603 13.9015 13.373 16.8138 14.5794C19.7261 15.7857 22.8481 16.4046 26.0003 16.4006V16.4006C29.1526 16.4046 32.2746 15.7857 35.1869 14.5794C38.0992 13.373 40.7444 11.603 42.9704 9.37109H9.03027Z" stroke="#EB1C23" stroke-width="3.99992" stroke-linecap="round" stroke-linejoin="round"/>
</svg>
