<svg width="33" height="33" viewBox="0 0 33 33" fill="none" xmlns="http://www.w3.org/2000/svg">
<path d="M25.1183 0.34375C27.279 0.34375 29.1328 1.06562 30.6797 2.50937C32.2266 3.95312 33 5.68333 33 7.7C33 8.70833 32.3493 10.2552 31.048 12.3406C29.7467 14.426 28.4699 16.5458 27.2176 18.7C25.9654 20.8542 25.4129 22.5729 25.5603 23.8562C25.5603 24.0854 25.4252 24.2 25.1551 24.2C24.885 24.2 24.75 24.0854 24.75 23.8562C24.8482 22.5729 24.2835 20.8542 23.0558 18.7C21.8281 16.5458 20.5636 14.426 19.2623 12.3406C17.9609 10.2552 17.3103 8.70833 17.3103 7.7C17.3103 5.68333 18.0714 3.95312 19.5938 2.50937C21.1161 1.06562 22.9576 0.34375 25.1183 0.34375ZM25.1551 4.74375C24.2958 4.74375 23.5592 5.03021 22.9453 5.60312C22.3315 6.17604 22.0246 6.875 22.0246 7.7C22.0246 8.525 22.3315 9.22396 22.9453 9.79687C23.5592 10.3698 24.2958 10.6562 25.1551 10.6562C26.0145 10.6562 26.7511 10.3698 27.365 9.79687C27.9788 9.22396 28.2857 8.525 28.2857 7.7C28.2857 6.875 27.9788 6.17604 27.365 5.60312C26.7511 5.03021 26.0145 4.74375 25.1551 4.74375ZM3.16741 3.3H16.7946C15.8125 4.76667 15.3214 6.34792 15.3214 8.04375C15.3214 9.23542 16.1071 11.1375 17.6786 13.75L0.0736607 30.1812L0 29.7V6.25625C0 5.43125 0.30692 4.73229 0.920759 4.15937C1.5346 3.58646 2.28348 3.3 3.16741 3.3ZM22.8348 22.2062L19.0781 18.7L20.1094 17.6687C21.2879 19.4562 22.1964 20.9687 22.8348 22.2062ZM27.3281 32.6562H15.7266H4.125L15.6897 21.7937L27.3281 32.6562ZM31.4531 15.6062V29.7L31.3795 30.1812L26.0759 25.2312C26.2232 24.8187 26.3951 24.3948 26.5915 23.9594C26.7879 23.524 27.0089 23.0656 27.2545 22.5844C27.5 22.1031 27.7333 21.6677 27.9542 21.2781C28.1752 20.8885 28.4699 20.3958 28.8382 19.8C29.2065 19.2042 29.4766 18.7573 29.6484 18.4594C29.8203 18.1615 30.1272 17.6687 30.5692 16.9812L31.4531 15.6062ZM7.36607 17.2562C6.53125 17.2562 5.8683 17.0958 5.37723 16.775C4.88616 16.4542 4.64062 16.0187 4.64062 15.4687C4.64062 14.8271 5.08259 14.3458 5.96652 14.025C6.45759 13.8875 6.99777 13.8187 7.58705 13.8187H7.95536C8.59375 14.2771 9.03571 14.6208 9.28125 14.85C9.52679 15.0792 9.64955 15.3542 9.64955 15.675C9.64955 16.0875 9.42857 16.4542 8.98661 16.775C8.54464 17.0958 8.00446 17.2562 7.36607 17.2562ZM5.52455 8.86875C5.52455 8.41042 5.6596 8.05521 5.92969 7.80312C6.19978 7.55104 6.5067 7.425 6.85045 7.425C7.48884 7.425 7.99219 7.7 8.36049 8.25C8.7288 8.8 8.91295 9.37292 8.91295 9.96875C8.91295 10.4729 8.75335 10.8281 8.43415 11.0344C8.11496 11.2406 7.78348 11.3437 7.43973 11.3437C6.89955 11.3437 6.44531 11.0802 6.07701 10.5531C5.70871 10.026 5.52455 9.46458 5.52455 8.86875ZM9.35491 13.1312L8.83929 12.7187C8.54464 12.4896 8.39732 12.2833 8.39732 12.1C8.39732 11.7792 8.5692 11.5042 8.91295 11.275C9.74777 10.6792 10.1652 10.0146 10.1652 9.28125C10.1652 8.63958 9.82143 8.04375 9.13393 7.49375H10.0179L10.6808 6.875H7.51339C6.48214 6.875 5.68415 7.13854 5.11942 7.66562C4.55469 8.19271 4.27232 8.82292 4.27232 9.55625C4.27232 10.1521 4.4933 10.6792 4.93527 11.1375C5.37723 11.5958 5.99107 11.825 6.77679 11.825H7.14509L6.99777 12.375C6.99777 12.6958 7.14509 13.0167 7.43973 13.3375C6.26116 13.3833 5.27902 13.6354 4.4933 14.0937C3.70759 14.5062 3.31473 15.0792 3.31473 15.8125C3.31473 16.4083 3.5971 16.901 4.16183 17.2906C4.72656 17.6802 5.54911 17.875 6.62946 17.875C7.85714 17.875 8.82701 17.6 9.53906 17.05C10.2511 16.5 10.6071 15.8812 10.6071 15.1937C10.6071 14.4604 10.1897 13.7729 9.35491 13.1312Z" fill="#EB1C23"/>
</svg>
