<svg width="37" height="27" viewBox="0 0 37 27" fill="none" xmlns="http://www.w3.org/2000/svg">
<path d="M0.830757 0.429857C0.69667 0.499815 0.647116 0.555199 0.594647 0.692202C0.507199 0.925396 0.588817 1.16151 0.792862 1.26644C0.851161 1.29851 2.47478 1.60749 4.95248 2.05931C7.18532 2.4674 9.01881 2.80553 9.02755 2.81136C9.03338 2.8201 8.97509 2.92213 8.89638 3.04164C8.82059 3.16115 8.73898 3.30398 8.71566 3.35937C8.69525 3.41475 8.67485 3.46139 8.67193 3.46722C8.66902 3.47013 7.17366 3.22528 5.35182 2.91921C3.36384 2.58691 2.00548 2.37412 1.95884 2.38286C1.60613 2.4674 1.46621 2.87549 1.69649 3.14075C1.74605 3.19613 1.81017 3.25443 1.83641 3.269C1.89471 3.30107 1.88888 3.29815 4.3724 3.64795C5.40721 3.79369 6.75974 3.98316 7.3777 4.07061C7.99567 4.15806 8.51161 4.23093 8.52036 4.23093C8.53493 4.23093 8.56699 4.45247 8.63112 5.01797C8.68942 5.53099 8.74772 5.70589 9.01881 6.18102C9.1529 6.41422 9.28407 6.65324 9.31322 6.70863C9.34237 6.76401 9.44731 6.92725 9.55224 7.07008C9.65427 7.21 9.73297 7.33242 9.72714 7.34117C9.71839 7.347 9.08002 7.25664 8.30465 7.13713C7.27568 6.9768 6.88799 6.92725 6.8705 6.95348C6.85884 6.97097 6.09513 8.27103 5.17984 9.84218C4.26164 11.4133 2.74004 14.0193 1.7956 15.6342C0.568412 17.7358 0.0699584 18.5637 0.0408091 18.552C0.0174896 18.5433 0 18.5433 0 18.5491C0 18.5957 0.145747 19.6597 0.151577 19.6655C0.163236 19.6743 1.02314 19.8637 3.01696 20.2951C3.85063 20.473 4.87377 20.6945 5.29061 20.7849L6.04849 20.9481L6.12719 21.5457C6.17383 21.8721 6.21756 22.149 6.23213 22.1607C6.25837 22.184 8.26676 22.5163 8.36586 22.5134C8.40667 22.5134 8.61655 22.4901 8.83225 22.4668C9.64261 22.3735 10.0186 22.356 10.4617 22.391C11.2983 22.4551 11.3187 22.4551 14.0791 22.8574C14.9682 22.9856 15.8339 23.111 16.003 23.1372C16.8775 23.2625 17.9443 23.4229 18.437 23.5016C19.772 23.7144 20.6319 23.8601 20.8447 23.9097L20.9788 23.9388L21.005 24.2507L21.0313 24.5597L21.1187 24.2886C21.1683 24.1399 21.2236 24.0117 21.244 24.0029C21.3111 23.9738 22.8152 24.2915 24.0074 24.583L24.6225 24.7317L24.6108 25.0115L24.6021 25.2913L24.7216 25.0494C24.7886 24.9182 24.8557 24.8104 24.8702 24.8104C24.9664 24.8104 26.5055 25.2739 26.8116 25.3963C27.1672 25.5391 27.8814 25.8656 28.4264 26.1396L28.9307 26.3932L30.3882 26.6934C31.1898 26.8596 31.8544 26.9966 31.8661 26.9966C31.8806 26.9966 31.8894 26.6993 31.8894 26.3378V25.679L32.0293 25.6965C32.1051 25.7053 33.137 25.8073 34.3234 25.9181C35.5097 26.0288 36.5271 26.1279 36.5824 26.1367L36.6874 26.1513L36.8273 25.6761C36.906 25.4167 36.976 25.1893 36.9818 25.1718C36.9876 25.1543 36.9643 25.131 36.9322 25.1223L36.8681 25.1048L36.8885 23.7989C36.9089 22.2598 36.9526 17.6863 36.9818 14.0688L36.9993 11.5037L36.3755 11.4104C36.0315 11.358 34.9646 11.1976 34.0027 11.0519L32.2538 10.7837L32.0964 10.6292C31.8019 10.3348 31.6329 10.3057 31.2015 10.4776L30.9362 10.5826L24.5263 9.60608C20.9992 9.06973 18.0085 8.615 17.8773 8.59751C17.7432 8.5771 17.6354 8.55378 17.6354 8.54212C17.6354 8.51297 17.8394 8.25646 18.2388 7.78424C18.7285 7.20708 18.915 6.95348 19.1016 6.60952C19.1919 6.44629 19.3319 6.1956 19.4193 6.04985L19.5738 5.78751L22.7219 6.23349C24.4534 6.47835 25.8992 6.67073 25.9371 6.66199C26.0333 6.64158 26.0799 6.52499 26.0245 6.43754C25.9721 6.35884 26.3131 6.42296 22.7219 5.81957C21.3286 5.58638 20.0839 5.3765 19.9586 5.3561C19.8361 5.33569 19.7254 5.31237 19.7166 5.30363C19.7108 5.29489 19.7166 5.16663 19.737 5.02088C19.7662 4.79935 19.7778 4.75562 19.8186 4.76728C19.9965 4.82267 24.707 5.65634 24.7507 5.64468C24.8731 5.60387 24.8906 5.42897 24.7799 5.36776C24.7507 5.35318 23.6605 5.11707 22.3546 4.84599C21.0487 4.57198 19.9527 4.3417 19.9207 4.33296C19.8653 4.3213 19.8565 4.29506 19.842 4.05021C19.8099 3.49928 19.6 3.07953 19.1074 2.58108C18.5769 2.04473 17.9677 1.69494 17.0407 1.38887C15.0411 0.730095 12.6508 0.811714 10.7561 1.60458C10.485 1.71826 10.0973 1.92813 9.87289 2.07971L9.70673 2.19339L8.29882 1.89898C4.626 1.12944 2.68466 0.72135 1.91511 0.561029C1.45455 0.461922 1.04063 0.383219 0.996908 0.383219C0.953184 0.383219 0.88031 0.403622 0.830757 0.429857Z" fill="white"/>
</svg>
