<svg width="37" height="37" viewBox="0 0 37 37" fill="none" xmlns="http://www.w3.org/2000/svg">
<mask id="mask0_915_181" style="mask-type:luminance" maskUnits="userSpaceOnUse" x="2" y="2" width="33" height="31">
<path d="M32.375 27.7497V16.958H4.625V27.7497C4.625 28.5674 4.94985 29.3517 5.52809 29.9299C6.10632 30.5082 6.89058 30.833 7.70833 30.833H29.2917C30.1094 30.833 30.8937 30.5082 31.4719 29.9299C32.0501 29.3517 32.375 28.5674 32.375 27.7497Z" fill="white" stroke="white" stroke-width="4" stroke-linecap="round" stroke-linejoin="round"/>
<path d="M4.625 23.125H32.375" stroke="black" stroke-width="4" stroke-linecap="round" stroke-linejoin="round"/>
<path d="M4.625 20.0416V26.2082M32.375 20.0416V26.2082M4.67665 16.9582H32.375C32.375 15.4042 23.2738 8.80128 18.5254 5.69405C13.7771 2.58759 9.82042 6.85955 6.6546 10.743C4.12242 13.8518 4.67665 15.4058 4.67665 16.9582Z" stroke="white" stroke-width="4" stroke-linecap="round" stroke-linejoin="round"/>
</mask>
<g mask="url(#mask0_915_181)">
<path d="M0 0H37V37H0V0Z" fill="white"/>
</g>
</svg>
