<svg width="33" height="33" viewBox="0 0 33 33" fill="none" xmlns="http://www.w3.org/2000/svg">
<path d="M20.8853 22.0575L23.1953 19.7475C23.5064 19.4403 23.9001 19.2299 24.3284 19.1421C24.7568 19.0542 25.2014 19.0926 25.6084 19.2525L28.4237 20.3766C28.835 20.5435 29.1877 20.8285 29.4372 21.1955C29.6868 21.5626 29.8222 21.9953 29.8262 22.4391V27.5954C29.8238 27.8973 29.7604 28.1956 29.6396 28.4724C29.5189 28.7491 29.3434 28.9986 29.1238 29.2057C28.9041 29.4129 28.6448 29.5734 28.3614 29.6777C28.0781 29.782 27.7765 29.8279 27.475 29.8125C7.74717 28.5854 3.76655 11.8791 3.01373 5.48535C2.97879 5.17138 3.01072 4.85356 3.10742 4.55281C3.20412 4.25205 3.36341 3.97518 3.5748 3.74041C3.78619 3.50564 4.0449 3.31829 4.3339 3.19068C4.62289 3.06308 4.93564 2.9981 5.25155 3.00004H10.2325C10.677 3.00136 11.1109 3.13562 11.4784 3.38555C11.846 3.63549 12.1304 3.98967 12.295 4.40254L13.419 7.21785C13.5843 7.62321 13.6265 8.06827 13.5403 8.49744C13.4541 8.92662 13.2433 9.32088 12.9344 9.63098L10.6244 11.941C10.6244 11.941 11.9547 20.9438 20.8853 22.0575Z" fill="#EB1C23"/>
</svg>
